<svg xmlns="http://www.w3.org/2000/svg" viewBox="0 0 460 70.24"><defs><style>.cls-1{fill:#f05c36;}.cls-2{fill:#f4803c;}.cls-3{fill:#f9a744;}.cls-4{fill:#f8bb4c;}.cls-5{fill:#e92c35;}.cls-6{fill:#ee4432;}.cls-7{fill:#f6d058;}.cls-8{fill:#bcb54f;}.cls-9{fill:#809a4a;}.cls-10{fill:#177eae;}.cls-11{fill:#298490;}.cls-12{fill:#40306a;}.cls-13{fill:#29578c;}.cls-14{fill:#428c73;}.cls-15{fill:#c02b43;}.cls-16{fill:#952d50;}.cls-17{fill:#6b2f5d;}.cls-18{fill:#62925e;}.cls-19{fill:#1e1e1e;}</style></defs><g id="Layer_2" data-name="Layer 2"><g id="Layer_1-2" data-name="Layer 1"><path class="cls-1" d="M15.35,17.05a3,3,0,0,0-2.45-3.38,2.92,2.92,0,0,0-3.3,2.51,3,3,0,0,0,2.45,3.39,2.91,2.91,0,0,0,3.29-2.5v0"/><path class="cls-2" d="M17.38,23.79a3.46,3.46,0,0,0-2.85-3.94,3.39,3.39,0,0,0-3.83,2.93,3.47,3.47,0,0,0,2.84,3.94,3.41,3.41,0,0,0,3.84-2.93"/><path class="cls-3" d="M21.69,30.94a3.91,3.91,0,0,0-3.24-4.47A3.86,3.86,0,0,0,14.1,29.8a3.93,3.93,0,0,0,3.23,4.47A3.86,3.86,0,0,0,21.7,31v0"/><path class="cls-4" d="M21.33,43a2.91,2.91,0,0,0,3.3,2.5,3,3,0,0,0,2.44-3.39,2.92,2.92,0,0,0-3.3-2.51h0a3,3,0,0,0-2.43,3.41"/><path class="cls-5" d="M16.85,1.72A1.52,1.52,0,0,0,15.57,0a1.5,1.5,0,0,0-1.66,1.32A1.51,1.51,0,0,0,15.16,3a1.47,1.47,0,0,0,1.68-1.27v0"/><path class="cls-6" d="M14.89,5.33a2,2,0,0,0-1.65-2.28A2,2,0,0,0,11,4.74,2,2,0,0,0,12.66,7a2,2,0,0,0,2.23-1.7"/><path class="cls-1" d="M14,10.7a2.48,2.48,0,0,0-2-2.84A2.45,2.45,0,0,0,9.2,10a2.49,2.49,0,0,0,2.05,2.84h0A2.44,2.44,0,0,0,14,10.7"/><path class="cls-7" d="M22.61,49a2.43,2.43,0,1,0,2.21-2.7A2.45,2.45,0,0,0,22.61,49h0"/><path class="cls-8" d="M20.71,53.86A2,2,0,0,0,23,55.53a2,2,0,0,0,1.62-2.3,2,2,0,0,0-2.23-1.67,2,2,0,0,0-1.64,2.28v0"/><path class="cls-9" d="M18.52,57.07a1.49,1.49,0,0,0,1.72,1.24,1.53,1.53,0,0,0,1.2-1.77,1.49,1.49,0,0,0-1.69-1.24A1.52,1.52,0,0,0,18.52,57v0"/><path class="cls-10" d="M20.88,40.58a4.53,4.53,0,0,1-5.59,3.24,4.68,4.68,0,0,1-3.15-5.74,4.54,4.54,0,0,1,5.58-3.24,4.69,4.69,0,0,1,3.16,5.74"/><path class="cls-11" d="M20.77,34.68a3.45,3.45,0,0,0,2.84,3.94,3.4,3.4,0,0,0,3.84-2.93,3.47,3.47,0,0,0-2.85-3.94,3.4,3.4,0,0,0-3.83,2.93"/><path class="cls-12" d="M8.61,53.47a3.3,3.3,0,0,1-4.1,2.34,3.43,3.43,0,0,1-2.28-4.22A3.32,3.32,0,0,1,6.3,49.24a3.43,3.43,0,0,1,2.31,4.2"/><path class="cls-13" d="M13.79,47.05A3.93,3.93,0,0,1,9,49.86a4.05,4.05,0,0,1-2.73-5,3.91,3.91,0,0,1,4.83-2.81,4,4,0,0,1,2.74,5v0"/><path class="cls-14" d="M25,28a3.31,3.31,0,0,1,4.08-2.39,3.43,3.43,0,0,1,2.31,4.2,3.31,3.31,0,0,1-4.08,2.38h0A3.42,3.42,0,0,1,25,28"/><path class="cls-15" d="M4.62,69.12a1.49,1.49,0,0,1-1.83,1.07,1.52,1.52,0,0,1-1-1.88,1.47,1.47,0,0,1,1.82-1.06h0a1.52,1.52,0,0,1,1,1.86h0"/><path class="cls-16" d="M4.11,64.93A2.08,2.08,0,0,1,1.52,66.4,2.16,2.16,0,0,1,.08,63.74a2.09,2.09,0,0,1,2.6-1.48h0a2.17,2.17,0,0,1,1.43,2.67"/><path class="cls-17" d="M5.33,59.43A2.69,2.69,0,0,1,2,61.36,2.78,2.78,0,0,1,.12,57.94,2.7,2.7,0,0,1,3.45,56a2.78,2.78,0,0,1,1.88,3.42"/><path class="cls-18" d="M28,21.94A2.69,2.69,0,0,1,31.33,20a2.79,2.79,0,0,1,1.89,3.42,2.7,2.7,0,0,1-3.33,1.93A2.78,2.78,0,0,1,28,22v0"/><path class="cls-9" d="M28.3,16.49A2.09,2.09,0,0,1,30.86,15a2.15,2.15,0,0,1,1.49,2.63,2.08,2.08,0,0,1-2.56,1.53h0a2.15,2.15,0,0,1-1.46-2.62"/><path class="cls-8" d="M27.69,11.8a1.47,1.47,0,0,1,1.83-1.06,1.52,1.52,0,0,1,1,1.87,1.47,1.47,0,0,1-1.82,1.06,1.52,1.52,0,0,1-1-1.87h0"/><path class="cls-19" d="M60.42,29.19c0,5.55-3.82,9-11.55,9H45.38V46.3H40.53V20.06h8c7.93,0,11.88,3,11.88,9.13m-5.21,0c0-3.19-2.19-4.95-7.11-4.95H45.38V34h3.06c4.38,0,6.77-1.66,6.77-4.88"/><path class="cls-19" d="M77.56,28.4l-1.89,4A5.42,5.42,0,0,0,72.18,31c-2.32,0-3.82,1.49-3.85,6V46.3H63.65v-13c0-1.73-.73-2.45-2.33-2.42l1.2-4c2.72,0,4.75.93,5.51,3.09a5.49,5.49,0,0,1,5-3.26,7.41,7.41,0,0,1,4.58,1.7"/><path class="cls-19" d="M86.56,42.81A3.48,3.48,0,0,0,90,41.05H94.7c-.87,3.69-3.82,5.58-8.14,5.58-5.94,0-9.6-4-9.6-10,0-6.35,3.89-10,9.17-10,5.91,0,9.6,4.29,9,11.86h-13c.47,2.82,2.09,4.25,4.45,4.25m3.69-7.54c-.17-3-1.36-4.75-4.12-4.75C84,30.52,82.41,32,82,35.27Z"/><path class="cls-19" d="M97,36.57c0-5.88,3.82-9.87,9.43-9.87,4.75,0,8.07,2.53,8.54,7.14h-4.75c-.46-2.12-1.73-3.32-3.85-3.32-2.56,0-4.35,2.06-4.35,6.08,0,3.82,1.79,6.21,4.38,6.21,2.13,0,3.25-1.16,3.82-3.25H115c-.57,4.61-3.85,7.07-8.54,7.07-5.61,0-9.43-4-9.43-10.06"/><path class="cls-19" d="M117.08,21.82a2.76,2.76,0,0,1,3-2.85,2.67,2.67,0,0,1,2.82,2.85,2.75,2.75,0,0,1-2.82,3,2.82,2.82,0,0,1-3-3m.57,5.22h4.68V46.3h-4.68Z"/><path class="cls-19" d="M124.85,40.55h4.39c.39,1.6,2.09,2.62,4.15,2.62,1.79,0,2.75-.69,2.72-1.75-.1-3.46-10.93-2-10.93-8.9,0-3.39,2.79-5.82,7.28-5.82,4.88,0,8,2.49,7.93,6.31H136a3.4,3.4,0,0,0-3.58-2.85c-1.5,0-2.43.83-2.43,2.06,0,3.85,10.93,1.89,10.93,8.9,0,3.38-2.59,5.51-7.34,5.51s-8.34-2.39-8.77-6.08"/><path class="cls-19" d="M142.88,21.82a2.76,2.76,0,0,1,3-2.85,2.68,2.68,0,0,1,2.83,2.85,2.75,2.75,0,0,1-2.83,3,2.82,2.82,0,0,1-3-3m.57,5.22h4.68V46.3h-4.68Z"/><path class="cls-19" d="M150.56,36.5c0-5.88,3.95-9.8,9.86-9.8s9.89,3.92,9.89,9.8c0,6.08-3.95,10.13-9.89,10.13s-9.86-4.05-9.86-10.13m14.74.1c0-3.75-1.83-6.08-4.88-6.08s-4.85,2.33-4.85,6.08,1.86,6.21,4.85,6.21,4.88-2.39,4.88-6.21"/><path class="cls-19" d="M191.27,35.8V46.3h-4.68V35.7c0-3.28-1.36-5-4-5s-4.35,2.29-4.38,5.88V46.3h-4.68v-13c0-1.72-.73-2.46-2.33-2.42l1.2-4c2.82,0,4.88,1,5.54,3.22a6.79,6.79,0,0,1,6.15-3.39c4.91,0,7.17,2.89,7.17,9.1"/><path class="cls-19" d="M218.17,41.62H207l-1.7,4.68H200.5l9.57-26.24h5.11l9.6,26.24h-4.92Zm-1.46-4.16-4.15-11.52-4.12,11.52Z"/><path class="cls-19" d="M242.91,31.45V43.67c0,6.88-2.92,9.93-9,9.93-4.52,0-7.21-2.49-8-5.51h4.75A3.79,3.79,0,0,0,234,49.78c2.92,0,4.22-2,4.22-6v-.63A6.59,6.59,0,0,1,232.68,46c-5.24,0-7.93-3.92-7.93-9.67,0-6.18,3.75-9.6,9-9.6a11.37,11.37,0,0,1,9.2,4.75m-4.68,4.19V32.52a5.11,5.11,0,0,0-3.95-2c-3,0-4.59,2.53-4.59,5.78,0,3.49,1.6,5.71,4.06,5.71,2.12,0,4.48-1,4.48-6.37"/><path class="cls-19" d="M245.34,21.82a2.75,2.75,0,0,1,3-2.85,2.67,2.67,0,0,1,2.82,2.85,2.75,2.75,0,0,1-2.82,3,2.82,2.82,0,0,1-3-3M245.9,27h4.68V46.3H245.9Z"/><path class="cls-19" d="M272.4,35.8V46.3h-4.68V35.7c0-3.28-1.36-5-4-5s-4.35,2.29-4.38,5.88V46.3h-4.68v-13c0-1.72-.73-2.46-2.33-2.42l1.2-4c2.82,0,4.88,1,5.54,3.22a6.81,6.81,0,0,1,6.15-3.39c4.91,0,7.17,2.89,7.17,9.1"/><path class="cls-19" d="M292.33,31.45V43.67c0,6.88-2.92,9.93-9,9.93-4.51,0-7.21-2.49-8-5.51h4.75a3.79,3.79,0,0,0,3.36,1.69c2.92,0,4.22-2,4.22-6v-.63A6.59,6.59,0,0,1,282.1,46c-5.25,0-7.94-3.92-7.94-9.67,0-6.18,3.76-9.6,9-9.6a11.37,11.37,0,0,1,9.2,4.75m-4.68,4.19V32.52a5.13,5.13,0,0,0-4-2c-3,0-4.58,2.53-4.58,5.78,0,3.49,1.6,5.71,4.05,5.71,2.13,0,4.49-1,4.49-6.37"/><path d="M298.83,21.42a3.24,3.24,0,1,1-3.23-3.16,3.16,3.16,0,0,1,3.23,3.16m-5.67,0a2.45,2.45,0,0,0,2.46,2.52,2.52,2.52,0,0,0,0-5,2.45,2.45,0,0,0-2.44,2.52m1.94,1.65h-.73V19.92a6.14,6.14,0,0,1,1.21-.1,2,2,0,0,1,1.1.23.9.9,0,0,1,.31.69.82.82,0,0,1-.66.74v0a1,1,0,0,1,.58.77,2.41,2.41,0,0,0,.23.79h-.79a2.94,2.94,0,0,1-.25-.77c-.06-.34-.25-.5-.65-.5h-.35Zm0-1.79h.35c.4,0,.73-.13.73-.46s-.21-.48-.67-.48a1.72,1.72,0,0,0-.41,0Z"/><path class="cls-19" d="M328,19.81V46.22h-5L310.38,28V46.22h-4.85V19.81h5L323.15,38V19.81Z"/><path class="cls-19" d="M342.44,42.71a3.53,3.53,0,0,0,3.41-1.77h4.78c-.87,3.71-3.85,5.61-8.19,5.61-6,0-9.67-4-9.67-10,0-6.38,3.92-10,9.23-10,5.95,0,9.66,4.31,9,11.93H338C338.42,41.27,340.06,42.71,342.44,42.71Zm3.71-7.59c-.17-3-1.37-4.78-4.15-4.78-2.17,0-3.74,1.44-4.11,4.78Z"/><path class="cls-19" d="M369,45.48a12,12,0,0,1-4.92,1.07c-5.21,0-7.38-3-7.38-8.82V30.57H353V26.83h3.65v-5h4.68v5h6.82v3.74h-6.82v7.06c0,3.31.73,4.91,3.64,4.91a7.65,7.65,0,0,0,2.91-.6Z"/><path class="cls-19" d="M399.77,26.83l-6.42,19.39H388.5l-4-12.9-4.05,12.9h-4.78l-6.45-19.39h4.88L378.27,40l4.11-13.14h4.48L390.91,40l4.24-13.17Z"/><path class="cls-19" d="M401,36.36c0-5.92,4-9.86,9.93-9.86s10,3.94,10,9.86c0,6.12-4,10.19-10,10.19S401,42.48,401,36.36Zm14.84.1c0-3.78-1.84-6.12-4.91-6.12s-4.88,2.34-4.88,6.12,1.87,6.25,4.88,6.25S415.84,40.3,415.84,36.46Z"/><path class="cls-19" d="M439.48,28.2l-1.91,4a5.48,5.48,0,0,0-3.51-1.37c-2.34,0-3.84,1.5-3.88,6.08v9.33h-4.71V33.15c0-1.74-.74-2.48-2.34-2.44l1.2-4.05c2.74,0,4.78.94,5.55,3.11a5.54,5.54,0,0,1,5-3.27A7.46,7.46,0,0,1,439.48,28.2Z"/><path class="cls-19" d="M454.45,46.22l-3.61-7.92a22.87,22.87,0,0,1-4.58.06v7.86h-4.71V19.81h4.71V34.29c5.52.53,7.49-1,7.49-7.46h4.71c.07,4.75-.9,7.89-3.11,9.69l4.65,9.7Z"/></g></g></svg>